<?xml version="1.0" standalone="no"?>
<!DOCTYPE svg PUBLIC "-//W3C//DTD SVG 20010904//EN"
 "http://www.w3.org/TR/2001/REC-SVG-20010904/DTD/svg10.dtd">
<svg version="1.0" xmlns="http://www.w3.org/2000/svg"
 width="200.000000pt" height="200.000000pt" viewBox="0 0 200.000000 200.000000"
 preserveAspectRatio="xMidYMid meet">

<g transform="translate(0.000000,200.000000) scale(0.100000,-0.100000)"
fill="#000000" stroke="none">
<path d="M920 1860 c0 -5 5 -10 10 -10 6 0 10 5 10 10 0 6 -4 10 -10 10 -5 0
-10 -4 -10 -10z"/>
<path d="M705 1850 c-3 -5 -1 -10 4 -10 6 0 11 5 11 10 0 6 -2 10 -4 10 -3 0
-8 -4 -11 -10z"/>
<path d="M970 1840 c0 -5 7 -10 16 -10 8 0 12 5 9 10 -3 6 -10 10 -16 10 -5 0
-9 -4 -9 -10z"/>
<path d="M623 1823 c-7 -2 -13 -11 -13 -19 0 -9 -4 -12 -10 -9 -13 8 -13 -1 0
-25 6 -11 26 -21 50 -25 47 -8 50 -19 13 -57 -34 -35 -23 -48 22 -24 39 21
105 15 105 -9 0 -8 9 -15 19 -15 11 0 23 -4 26 -10 3 -5 23 -14 44 -20 37 -10
127 -79 104 -80 -7 0 -16 7 -21 15 -7 13 -14 14 -36 5 -15 -5 -44 -11 -64 -11
-20 -1 -29 -3 -19 -6 21 -6 21 -7 0 -41 -21 -32 -34 -43 -45 -36 -4 3 -8 -2
-8 -10 0 -26 -15 -18 -18 9 -2 26 7 32 24 15 8 -8 15 -6 24 5 7 8 10 16 6 16
-3 1 -10 3 -16 4 -5 1 -14 3 -20 4 -5 0 -10 8 -10 17 0 9 -6 14 -12 11 -7 -2
-12 -11 -12 -20 1 -10 -4 -13 -14 -9 -12 4 -14 1 -9 -12 6 -14 3 -17 -9 -12
-8 3 -20 6 -26 6 -6 0 -8 11 -6 25 4 19 1 24 -11 21 -34 -7 -51 -19 -51 -36 0
-11 -4 -22 -10 -25 -6 -3 -7 1 -4 9 4 10 1 16 -10 16 -12 0 -14 5 -6 24 5 13
5 37 1 53 l-8 28 -8 -27 c-4 -16 -13 -28 -20 -28 -34 0 -23 -47 15 -63 8 -3
-2 -4 -22 -2 -28 3 -38 0 -38 -11 0 -8 -4 -14 -10 -14 -5 0 -10 -12 -11 -27 0
-16 -3 -22 -6 -15 -16 41 -52 -97 -53 -202 l0 -38 25 16 c36 24 42 20 14 -10
-13 -14 -24 -31 -25 -37 0 -7 -2 -18 -2 -24 -1 -7 -13 -13 -27 -13 -14 0 -25
-4 -25 -10 0 -5 -7 -10 -16 -10 -9 0 -23 -8 -31 -17 -10 -13 -16 -15 -19 -5
-10 23 -24 12 -24 -18 0 -16 5 -30 12 -30 6 0 2 -11 -11 -23 -17 -19 -20 -29
-13 -48 6 -14 6 -34 0 -49 -14 -38 1 -120 29 -162 13 -20 32 -67 42 -105 21
-79 35 -108 58 -122 10 -5 23 -31 29 -58 7 -26 19 -74 28 -106 9 -32 16 -79
16 -105 1 -49 18 -88 79 -181 l34 -51 410 0 410 0 -7 39 c-4 30 0 52 20 96 20
44 25 67 21 99 -4 27 -1 47 9 60 8 11 14 37 14 58 0 24 10 55 29 85 16 27 37
73 46 104 9 32 27 69 40 84 14 14 25 29 25 34 0 4 14 23 30 41 17 19 35 51 42
72 23 77 -47 306 -100 325 -27 10 -32 24 -32 89 0 81 -32 201 -77 291 -38 75
-122 173 -148 173 -8 0 -46 32 -84 71 -46 46 -77 69 -88 67 -19 -3 -26 -33 -8
-33 19 -1 70 -34 96 -62 25 -26 39 -90 18 -77 -5 3 -9 16 -9 30 0 23 -3 25
-42 22 -42 -3 -43 -4 -44 -38 -1 -26 -1 -28 3 -7 2 15 7 27 11 27 4 0 17 3 30
6 20 6 22 4 18 -20 -7 -36 -14 -46 -38 -46 -12 0 -22 -8 -25 -20 -8 -29 -29
-19 -25 12 2 14 -8 51 -22 83 -15 32 -26 63 -26 69 0 7 -5 17 -12 24 -7 7 -13
22 -13 34 0 33 -30 46 -54 24 -29 -26 -26 -36 8 -36 39 0 47 -25 15 -46 -31
-21 -26 -26 14 -15 l32 10 -6 -40 c-6 -35 -5 -39 11 -33 15 6 16 3 10 -26 -5
-22 -4 -30 4 -26 5 4 4 -5 -3 -19 -21 -41 -22 -40 -73 53 -13 22 -28 44 -35
48 -10 6 -11 4 0 -7 6 -7 12 -22 12 -33 0 -19 0 -19 -22 0 -21 19 -21 19 -15
-6 4 -14 7 -29 7 -34 0 -5 9 -1 20 9 20 18 21 18 34 -1 9 -12 11 -20 4 -23 -6
-2 -14 3 -19 10 -6 11 -9 10 -15 -4 -6 -16 -8 -16 -30 -2 -13 8 -30 15 -39 15
-18 0 -21 20 -2 21 6 0 2 4 -11 10 -13 5 -21 13 -18 18 8 13 -13 26 -74 45
-67 20 -101 40 -52 31 17 -4 47 -3 65 1 28 6 29 8 12 15 -11 4 -44 8 -74 8
-42 1 -52 4 -48 15 3 8 -1 17 -9 20 -23 9 -27 7 -20 -9 3 -8 3 -15 0 -15 -3 0
-12 7 -20 15 -9 8 -24 15 -35 15 -24 0 -25 17 -1 23 14 4 14 5 -3 5 -11 0 -26
-2 -32 -5z m767 -243 c0 -5 -4 -10 -10 -10 -5 0 -10 5 -10 10 0 6 5 10 10 10
6 0 10 -4 10 -10z m-140 -5 c0 -8 -34 -45 -42 -45 -13 0 -9 18 8 34 15 15 34
21 34 11z m-300 -55 c-18 -11 -22 -7 -14 14 5 13 10 14 18 6 8 -8 7 -13 -4
-20z m302 8 c-7 -7 -12 -8 -12 -2 0 14 12 26 19 19 2 -3 -1 -11 -7 -17z m-143
-2 c16 -19 -13 -48 -43 -44 -27 4 -35 44 -9 51 32 8 40 7 52 -7z m79 -19 c13
4 12 2 -3 -10 -25 -19 -35 -14 -27 16 5 17 7 18 10 5 2 -11 9 -15 20 -11z
m-307 -20 c-10 -9 -11 -8 -5 6 3 10 9 15 12 12 3 -3 0 -11 -7 -18z m99 -31
c-8 -8 -13 -7 -19 3 -6 9 -11 10 -15 2 -4 -6 -14 -11 -22 -11 -23 0 4 35 35
46 22 8 27 7 29 -9 2 -11 -1 -24 -8 -31z m260 34 c0 -5 -7 -10 -15 -10 -8 0
-15 5 -15 10 0 6 7 10 15 10 8 0 15 -4 15 -10z m-570 -17 c0 -10 -5 -25 -10
-33 -8 -13 -10 -13 -10 2 0 9 -3 23 -6 32 -4 11 -1 16 10 16 9 0 16 -8 16 -17z
m53 -23 c7 -1 0 -8 -15 -16 -16 -8 -28 -19 -28 -24 0 -6 -5 -10 -12 -10 -9 0
-9 3 0 12 7 7 12 21 12 31 0 13 5 17 16 13 9 -3 21 -6 27 -6z m497 0 c0 -5 -4
-10 -10 -10 -5 0 -10 5 -10 10 0 6 5 10 10 10 6 0 10 -4 10 -10z m-365 -20
c-3 -5 -10 -10 -16 -10 -5 0 -9 5 -9 10 0 6 7 10 16 10 8 0 12 -4 9 -10z m110
0 c-3 -5 -11 -10 -16 -10 -6 0 -7 5 -4 10 3 6 11 10 16 10 6 0 7 -4 4 -10z
m-330 -19 c-3 -6 -11 -11 -17 -11 -6 0 -6 6 2 15 14 17 26 13 15 -4z m80 -23
c-16 -4 -31 -5 -33 -3 -8 7 42 23 53 17 5 -3 -4 -9 -20 -14z m260 -98 c12 -20
-105 -24 -136 -5 -5 4 -43 -3 -84 -14 -91 -25 -96 -26 -65 -4 14 10 45 20 70
24 69 9 209 8 215 -1z m128 -25 c0 -6 -7 -11 -16 -13 -12 -3 -15 1 -11 13 7
17 25 17 27 0z m-49 -143 c-2 -25 0 -32 7 -22 6 11 9 3 10 -25 2 -54 -1 -69
-14 -77 -22 -14 -32 -1 -35 48 -2 27 -4 58 -4 69 -1 11 -6 23 -10 26 -5 3 -4
19 2 35 l11 29 18 -24 c11 -15 17 -37 15 -59z m-559 -32 c-3 -5 -10 -10 -16
-10 -5 0 -9 5 -9 10 0 6 7 10 16 10 8 0 12 -4 9 -10z m213 -53 l33 -12 -31
-12 c-17 -6 -32 -7 -36 -2 -3 5 -20 10 -37 10 -18 1 -24 3 -14 6 9 2 17 9 17
14 0 12 27 10 68 -4z m202 -92 c-14 -17 -45 -19 -75 -4 -15 7 -9 8 21 4 33 -4
43 -1 48 11 4 9 9 14 13 11 3 -4 0 -13 -7 -22z m-60 -35 c0 -5 -5 -10 -11 -10
-5 0 -7 5 -4 10 3 6 8 10 11 10 2 0 4 -4 4 -10z m145 -40 c-27 -12 -43 -12
-25 0 8 5 22 9 30 9 10 0 8 -3 -5 -9z m-45 -10 c0 -5 -4 -10 -8 -10 -5 0 -17
-8 -28 -18 -27 -25 -94 -63 -94 -53 0 4 12 17 26 27 15 10 38 29 53 41 28 24
51 30 51 13z m130 -207 c12 -4 11 -7 -5 -13 -11 -4 -26 -3 -32 2 -15 12 -46
-9 -37 -24 7 -11 -13 -28 -33 -28 -7 0 -10 7 -7 15 5 13 1 13 -24 -2 -17 -10
-34 -14 -39 -10 -13 14 40 47 75 47 17 0 32 5 32 10 0 12 -23 12 -72 1 -22 -5
-36 -5 -32 0 3 5 14 9 24 9 10 0 21 4 24 8 5 8 86 -2 126 -15z m40 -28 c0 -8
-4 -15 -10 -15 -5 0 -10 7 -10 15 0 8 5 15 10 15 6 0 10 -7 10 -15z m-275 -15
c3 -5 2 -10 -4 -10 -5 0 -13 5 -16 10 -3 6 -2 10 4 10 5 0 13 -4 16 -10z
m-105 -452 c0 -4 -12 -8 -26 -8 -14 0 -23 4 -19 9 6 11 45 10 45 -1z m33 -42
c4 -10 1 -13 -9 -9 -7 3 -14 9 -14 14 0 14 17 10 23 -5z"/>
<path d="M714 1656 c-19 -15 -19 -15 1 -11 11 2 23 4 28 4 10 1 9 21 -1 21 -5
0 -17 -6 -28 -14z"/>
<path d="M610 1587 c0 -7 8 -13 18 -14 9 -1 28 -4 42 -9 35 -10 21 2 -23 21
-29 12 -37 12 -37 2z"/>
<path d="M800 1580 c0 -9 36 -20 63 -20 10 0 17 5 15 12 -5 13 -78 20 -78 8z"/>
<path d="M750 1555 c-10 -12 -10 -15 4 -15 9 0 16 7 16 15 0 8 -2 15 -4 15 -2
0 -9 -7 -16 -15z"/>
<path d="M335 1100 c-3 -5 -1 -10 4 -10 6 0 11 5 11 10 0 6 -2 10 -4 10 -3 0
-8 -4 -11 -10z"/>
</g>
</svg>
