<?xml version="1.0" standalone="no"?>
<!DOCTYPE svg PUBLIC "-//W3C//DTD SVG 20010904//EN"
 "http://www.w3.org/TR/2001/REC-SVG-20010904/DTD/svg10.dtd">
<svg version="1.0" xmlns="http://www.w3.org/2000/svg"
 width="192.000000pt" height="192.000000pt" viewBox="0 0 192.000000 192.000000"
 preserveAspectRatio="xMidYMid meet">

<g transform="translate(0.000000,192.000000) scale(0.100000,-0.100000)"
fill="#000000" stroke="none">
<path d="M148 1910 c-51 -15 -94 -49 -118 -92 l-25 -43 -3 -790 c-2 -556 1
-803 8 -835 15 -58 51 -105 100 -130 35 -18 59 -20 242 -20 l203 0 34 108 c64
203 95 287 123 335 15 26 28 50 28 53 0 2 -10 9 -22 14 -22 8 -22 9 5 9 25 1
27 3 17 21 -8 16 -17 19 -33 14 -12 -3 -19 -3 -15 1 4 5 3 14 -4 22 -16 19 -4
27 24 13 22 -11 22 -11 -2 9 -21 18 -21 20 -5 15 11 -4 26 -11 32 -17 7 -5 22
-7 33 -4 14 3 25 -1 32 -13 15 -23 49 -9 43 18 -2 13 3 18 18 18 59 -2 58 -6
-19 -468 -6 -32 -11 -38 -30 -38 -16 0 -24 -6 -24 -18 0 -10 -7 -28 -16 -40
-14 -20 -14 -23 0 -28 9 -3 13 -10 10 -15 -3 -5 13 -9 34 -9 l40 0 7 52 c7 58
42 277 51 321 7 33 24 26 24 -10 0 -14 4 -42 10 -62 5 -20 16 -72 24 -116 9
-44 22 -102 29 -130 l13 -50 192 -3 c124 -1 192 1 192 8 0 5 -11 12 -25 16
-28 7 -32 19 -9 28 30 12 42 6 49 -24 l7 -31 76 2 c62 1 79 5 90 20 17 25 32
24 32 -1 0 -18 7 -20 75 -20 70 0 75 2 75 21 0 15 5 19 15 15 8 -3 15 -1 15 5
0 6 4 8 9 5 16 -10 41 5 41 25 0 13 7 19 23 19 16 0 28 9 35 25 19 40 17 1644
-2 1688 -17 43 -76 93 -123 106 -23 7 -179 11 -402 11 -324 0 -362 -2 -357
-16 3 -8 2 -12 -4 -9 -6 3 -10 -1 -10 -9 0 -8 4 -18 10 -21 11 -7 11 -85 -1
-85 -4 0 -2 -12 6 -27 16 -34 13 -71 -6 -84 -12 -8 -12 -10 1 -18 20 -14 23
-101 3 -101 -12 0 -12 -2 1 -16 9 -8 16 -19 16 -24 0 -5 26 -11 58 -15 31 -3
91 -15 134 -27 42 -11 81 -18 86 -14 5 3 13 -1 16 -10 8 -22 8 -26 -4 -19 -5
3 -10 -1 -10 -9 0 -10 -9 -16 -22 -16 -22 1 -22 1 -4 15 15 11 16 15 5 19 -22
8 -93 26 -101 26 -11 0 -22 -82 -28 -212 0 -5 -10 -8 -22 -9 l-23 0 22 -9 c18
-7 22 -18 25 -77 3 -51 0 -71 -11 -80 -12 -10 -12 -15 -1 -28 12 -14 11 -18
-1 -25 -7 -5 -23 -7 -34 -5 -70 13 -85 14 -85 2 0 -8 -4 -7 -10 3 -8 13 -10
12 -10 -4 0 -20 0 -20 -15 0 -10 13 -17 15 -22 8 -10 -14 -86 -27 -78 -13 4 5
-1 9 -9 9 -9 0 -16 -4 -16 -9 0 -12 -96 -35 -110 -26 -5 3 -10 -1 -10 -11 0
-13 -3 -14 -14 -5 -12 10 -13 8 -9 -8 3 -12 1 -21 -6 -21 -6 0 -11 4 -11 10 0
5 -20 1 -44 -10 -24 -10 -47 -15 -51 -12 -4 4 -4 -4 0 -17 5 -16 4 -21 -4 -17
-6 4 -27 -2 -46 -14 -23 -14 -35 -17 -35 -9 0 7 -3 10 -6 6 -3 -3 4 -21 17
-39 12 -18 16 -27 9 -20 -24 21 -34 13 -14 -10 19 -23 18 -23 -7 0 l-27 23
-21 -29 c-25 -36 -26 -42 -5 -42 23 0 193 -112 194 -127 0 -7 -48 19 -107 57
-59 39 -110 67 -114 63 -12 -15 -20 -63 -9 -63 14 0 13 -18 -2 -34 -11 -11
-17 1 -35 63 -12 42 -25 93 -29 115 -4 26 -9 34 -15 25 -4 -8 -3 -19 3 -26 6
-8 8 -16 4 -20 -17 -17 -24 31 -11 77 4 17 4 21 -3 12 -6 -10 -12 13 -17 70
-12 119 -13 158 -3 164 4 3 8 15 8 27 0 12 9 36 20 52 11 17 21 46 21 65 2 30
3 31 6 8 l4 -28 26 31 c38 45 127 108 186 131 29 12 57 28 64 36 6 8 16 12 20
9 13 -8 143 23 143 33 0 5 -8 11 -17 14 -10 3 -4 4 13 3 27 -3 54 11 54 28 0
4 -15 4 -32 0 -31 -7 -32 -6 -13 9 11 8 26 16 33 16 15 0 16 26 0 36 -6 4 -25
11 -42 15 -29 7 -29 7 11 8 33 1 41 4 37 16 -4 10 -14 13 -30 9 -32 -8 -31 4
1 16 35 13 33 48 -2 56 -48 10 -49 12 -10 13 30 1 37 5 37 21 0 18 -3 19 -21
10 -11 -7 -23 -9 -26 -6 -3 3 6 11 21 17 45 21 29 59 -25 59 -10 0 -19 4 -19
8 0 4 16 6 35 4 30 -4 35 -1 35 17 0 19 -3 20 -21 11 -11 -6 -25 -10 -31 -8
-6 2 3 10 20 17 18 8 32 17 32 22 0 11 -695 10 -732 -1z m959 -36 c-16 -9 -31
-13 -34 -10 -3 3 5 10 18 15 37 15 47 12 16 -5z m23 -99 c0 -8 -52 -26 -58
-20 -3 2 6 9 19 14 28 11 39 13 39 6z m5 -114 c-6 -5 -23 -12 -40 -15 l-30 -6
30 14 c35 18 54 20 40 7z m5 -111 c0 -5 -3 -10 -7 -10 -5 0 -19 -3 -33 -6
l-25 -5 25 15 c30 18 40 20 40 6z m410 -170 c-8 -5 -22 -10 -31 -10 -9 0 -19
-10 -22 -22 -4 -12 -9 -20 -12 -16 -3 3 -1 17 4 32 9 21 17 26 43 26 25 0 29
-3 18 -10z m-242 -45 c2 -25 -4 -45 -19 -63 -16 -20 -20 -22 -15 -7 4 11 10
34 13 50 11 65 18 71 21 20z m-44 -38 c14 -9 -20 -37 -46 -37 -15 0 -16 3 -6
19 7 11 16 17 20 15 4 -3 9 10 9 28 1 27 3 29 6 8 3 -14 10 -28 17 -33z m266
28 c0 -8 -4 -15 -10 -15 -5 0 -7 7 -4 15 4 8 8 15 10 15 2 0 4 -7 4 -15z
m-200 -45 c0 -22 -3 -40 -8 -40 -4 0 -6 18 -4 40 2 22 6 40 8 40 2 0 4 -18 4
-40z m-90 -50 c0 -5 -7 -10 -15 -10 -8 0 -15 5 -15 10 0 6 7 10 15 10 8 0 15
-4 15 -10z m30 -16 c0 -8 -4 -12 -10 -9 -5 3 -10 10 -10 16 0 5 5 9 10 9 6 0
10 -7 10 -16z m60 0 c0 -2 -12 -4 -27 -4 -21 0 -24 3 -14 9 13 8 41 5 41 -5z
m-55 -34 c3 -5 1 -10 -4 -10 -6 0 -11 5 -11 10 0 6 2 10 4 10 3 0 8 -4 11 -10z
m24 -67 c-1 -10 -5 -29 -9 -43 -7 -21 -8 -19 -9 18 -1 23 4 42 9 42 6 0 10 -8
9 -17z m-39 -83 c0 -5 -6 -10 -14 -10 -8 0 -22 -3 -32 -7 -16 -6 -17 -5 -4 10
16 18 50 23 50 7z m-870 -280 c0 -5 -2 -10 -4 -10 -3 0 -8 5 -11 10 -3 6 -1
10 4 10 6 0 11 -4 11 -10z m260 -10 c0 -5 -5 -10 -11 -10 -5 0 -7 5 -4 10 3 6
8 10 11 10 2 0 4 -4 4 -10z m170 6 c0 -2 -7 -7 -16 -10 -8 -3 -12 -2 -9 4 6
10 25 14 25 6z m-410 -72 c0 -8 -4 -12 -10 -9 -5 3 -10 10 -10 16 0 5 5 9 10
9 6 0 10 -7 10 -16z m90 -4 c0 -5 -4 -10 -9 -10 -6 0 -13 5 -16 10 -3 6 1 10
9 10 9 0 16 -4 16 -10z m217 4 c-3 -3 -12 -4 -19 -1 -8 3 -5 6 6 6 11 1 17 -2
13 -5z m-120 -31 c42 -19 63 -34 63 -45 0 -10 -7 -18 -16 -18 -8 0 -13 4 -10
9 8 12 -20 22 -39 14 -10 -3 -15 0 -13 8 2 9 -5 14 -19 13 -12 0 -19 4 -16 9
4 6 0 8 -8 5 -10 -4 -15 1 -16 13 -2 25 1 24 74 -8z m153 7 c0 -5 -5 -10 -11
-10 -5 0 -7 5 -4 10 3 6 8 10 11 10 2 0 4 -4 4 -10z m81 -7 c13 -16 12 -17 -3
-4 -10 7 -18 15 -18 17 0 8 8 3 21 -13z m0 -49 c13 -16 12 -16 -8 -5 -13 6
-23 16 -23 20 0 5 -8 7 -18 4 -13 -3 -18 2 -18 16 0 19 1 19 27 1 14 -11 32
-27 40 -36z m101 9 c-4 -33 -6 -35 -13 -15 -8 22 -3 52 10 52 4 0 5 -17 3 -37z
m-342 -33 c51 -20 84 -40 66 -40 -21 0 -206 63 -206 69 0 12 77 -4 140 -29z
m-50 -49 c0 -5 -9 -7 -20 -4 -11 3 -20 7 -20 9 0 2 9 4 20 4 11 0 20 -4 20 -9z
m45 -11 c-3 -5 -12 -7 -20 -3 -21 7 -19 13 6 13 11 0 18 -4 14 -10z m949 -369
c5 0 3 -8 -4 -16 -17 -21 -47 -19 -60 4 -9 17 -6 19 23 17 17 -2 36 -4 41 -5z
m6 -111 c0 -12 -8 -12 -35 0 -18 8 -17 9 8 9 15 1 27 -3 27 -9z"/>
<path d="M1052 1388 c2 -31 8 -44 21 -46 14 -3 17 4 17 42 0 40 -3 46 -21 46
-18 0 -20 -5 -17 -42z"/>
<path d="M1110 1380 c0 -33 3 -40 20 -40 17 0 20 7 20 40 0 33 -3 40 -20 40
-17 0 -20 -7 -20 -40z"/>
<path d="M784 1388 c3 -13 6 -31 6 -40 0 -10 7 -18 15 -18 11 0 15 11 15 40 0
34 -3 40 -21 40 -17 0 -20 -4 -15 -22z"/>
<path d="M737 1393 c-11 -10 -8 -61 4 -69 18 -11 30 11 23 44 -6 31 -14 39
-27 25z"/>
<path d="M520 1268 c0 -15 5 -30 10 -33 13 -8 13 25 0 45 -8 12 -10 9 -10 -12z"/>
<path d="M486 1233 c9 -38 14 -42 14 -10 0 14 -5 29 -10 32 -7 4 -8 -3 -4 -22z"/>
<path d="M420 1177 c0 -14 5 -29 10 -32 7 -4 8 3 4 22 -9 38 -14 42 -14 10z"/>
<path d="M1057 1182 c-2 -4 -4 -23 -6 -43 -2 -29 2 -37 18 -42 19 -5 21 -1 21
38 0 28 -5 45 -15 48 -8 4 -16 3 -18 -1z"/>
<path d="M900 1140 c0 -30 4 -40 16 -40 11 0 14 5 10 16 -3 9 -6 27 -6 40 0
13 -4 24 -10 24 -5 0 -10 -18 -10 -40z"/>
<path d="M954 1149 c3 -17 6 -35 6 -40 0 -5 7 -6 15 -3 26 10 16 74 -12 74
-12 0 -14 -7 -9 -31z"/>
<path d="M1114 1167 c-11 -29 0 -72 19 -75 16 -3 18 2 15 39 -3 43 -23 64 -34
36z"/>
<path d="M396 1145 c8 -37 14 -45 14 -19 0 10 -5 26 -10 34 -8 11 -9 7 -4 -15z"/>
<path d="M814 1138 c3 -13 6 -29 6 -35 0 -7 5 -13 10 -13 6 0 10 16 10 35 0
26 -4 35 -16 35 -12 0 -15 -6 -10 -22z"/>
<path d="M760 1115 c0 -24 5 -35 15 -35 15 0 20 26 9 54 -11 28 -24 17 -24
-19z"/>
<path d="M715 1083 c9 -36 14 -41 25 -23 10 16 -5 50 -21 50 -7 0 -9 -10 -4
-27z"/>
<path d="M560 1040 c0 -14 5 -32 10 -40 8 -12 10 -10 10 10 0 14 -5 32 -10 40
-8 12 -10 10 -10 -10z"/>
<path d="M797 1044 c-16 -9 -26 -18 -23 -21 10 -10 77 8 74 19 -6 18 -21 18
-51 2z"/>
<path d="M521 1018 c1 -7 5 -24 9 -38 7 -22 8 -21 9 13 1 20 -3 37 -9 37 -5 0
-10 -6 -9 -12z"/>
<path d="M472 965 c0 -11 3 -29 8 -40 11 -25 11 1 0 35 -6 20 -8 21 -8 5z"/>
<path d="M452 910 c0 -14 2 -19 5 -12 2 6 2 18 0 25 -3 6 -5 1 -5 -13z"/>
<path d="M750 556 c0 -2 7 -7 16 -10 8 -3 12 -2 9 4 -6 10 -25 14 -25 6z"/>
<path d="M795 527 c-4 -10 -5 -21 -1 -24 10 -10 18 4 13 24 -4 17 -4 17 -12 0z"/>
<path d="M722 92 c-26 -80 -27 -92 -8 -92 9 0 16 15 20 40 3 22 9 58 12 80 3
22 4 40 2 40 -2 0 -14 -31 -26 -68z"/>
</g>
</svg>
